<svg id="Слой_2" data-name="Слой 2" xmlns="http://www.w3.org/2000/svg" viewBox="0 0 416.69 416.69"><defs><style>.cls-1{fill:none;stroke:#ffc70b;stroke-miterlimit:10;stroke-width:25px;}.cls-2{fill:#ffc70b;}</style></defs><title>png2</title><circle class="cls-1" cx="208.34" cy="208.34" r="195.84"/><path class="cls-2" d="M401.16,248.31l-14.12-.2a7.6,7.6,0,0,1-5.34-12.91l9.84-10.11a20.59,20.59,0,0,0,0-29.13L371,175.37a20.62,20.62,0,0,0-29.14,0l-10.13,9.84a7.6,7.6,0,0,1-12.9-5.35l-0.19-14.1a20.63,20.63,0,0,0-20.6-20.6H268.92a20.63,20.63,0,0,0-20.6,20.6l-0.19,14.1a7.6,7.6,0,0,1-12.9,5.35l-10.13-9.84a20.62,20.62,0,0,0-29.14,0L175.38,196a20.59,20.59,0,0,0,0,29.13l9.84,10.11a7.6,7.6,0,0,1-5.34,12.91l-14.12.2a20.64,20.64,0,0,0-20.61,20.59V298a20.6,20.6,0,0,0,20.6,20.6l14.13,0.2a7.6,7.6,0,0,1,5.35,12.9l-9.85,10.13a20.64,20.64,0,0,0,0,29.14L196,391.55a20.58,20.58,0,0,0,29.13,0l10.12-9.84a7.6,7.6,0,0,1,12.9,5.35l0.2,14.12a20.63,20.63,0,0,0,20.6,20.61H298a20.63,20.63,0,0,0,20.6-20.61l0.2-14.12a7.6,7.6,0,0,1,12.9-5.35l10.12,9.84a20.58,20.58,0,0,0,29.13,0L391.55,371a20.64,20.64,0,0,0,0-29.14l-9.85-10.13A7.6,7.6,0,0,1,387,318.8l14.13-.2a20.6,20.6,0,0,0,20.6-20.6V268.9A20.64,20.64,0,0,0,401.16,248.31Zm-117.7,98.25a63.09,63.09,0,1,1,63.09-63.09A63.09,63.09,0,0,1,283.46,346.55Z" transform="translate(-75.12 -75.12)"/></svg>